<svg width="48" height="48" viewBox="0 0 48 48" fill="none" xmlns="http://www.w3.org/2000/svg">
<mask id="mask0_1_889" style="mask-type:alpha" maskUnits="userSpaceOnUse" x="0" y="0" width="48" height="48">
<circle cx="24" cy="24" r="24" transform="matrix(-1 -1.74846e-07 -1.74846e-07 1 48 7.62939e-06)" fill="#D9D9D9"/>
</mask>
<g mask="url(#mask0_1_889)">
<circle cx="24" cy="24" r="24" transform="matrix(-1 -1.74846e-07 -1.74846e-07 1 48 3.05176e-05)" fill="black"/>
<circle cx="7.5" cy="7.5" r="7.5" transform="matrix(-0.999971 0.00762341 0.00762341 0.999971 31.4996 15.8444)" fill="white"/>
<circle cx="28.5" cy="28.5" r="28.5" transform="matrix(-0.999971 0.00762341 0.00762341 0.999971 52.5002 33)" fill="white"/>
<circle cx="3" cy="3" r="3" transform="matrix(-0.999971 0.00762341 0.00762341 0.999971 26.9998 7.50001)" fill="white"/>
<circle cx="24" cy="24" r="23.75" transform="matrix(-1 -1.74846e-07 -1.74846e-07 1 48 7.62939e-06)" stroke="black" stroke-width="0.5"/>
</g>
</svg>
