<svg width="32" height="32" viewBox="0 0 32 32" fill="none" xmlns="http://www.w3.org/2000/svg">
<mask id="mask0_1_879" style="mask-type:alpha" maskUnits="userSpaceOnUse" x="0" y="0" width="32" height="32">
<circle cx="16" cy="16" r="16" transform="matrix(-1 -1.74846e-07 -1.74846e-07 1 32 7.62939e-06)" fill="#D9D9D9"/>
</mask>
<g mask="url(#mask0_1_879)">
<circle cx="16" cy="16" r="16" transform="matrix(-1 -1.74846e-07 -1.74846e-07 1 32 1.90735e-05)" fill="black"/>
<circle cx="5" cy="5" r="5" transform="matrix(-0.999971 0.00762341 0.00762341 0.999971 20.9997 10.5629)" fill="white"/>
<circle cx="19" cy="19" r="19" transform="matrix(-0.999971 0.00762341 0.00762341 0.999971 35.0001 22)" fill="white"/>
<circle cx="2" cy="2" r="2" transform="matrix(-0.999971 0.00762341 0.00762341 0.999971 17.9999 5)" fill="white"/>
<circle cx="16" cy="16" r="15.75" transform="matrix(-1 -1.74846e-07 -1.74846e-07 1 32 7.62939e-06)" stroke="black" stroke-width="0.5"/>
</g>
</svg>
