<svg width="64" height="64" viewBox="0 0 64 64" fill="none" xmlns="http://www.w3.org/2000/svg">
<mask id="mask0_1_898" style="mask-type:alpha" maskUnits="userSpaceOnUse" x="0" y="0" width="64" height="64">
<circle cx="32" cy="32" r="32" transform="matrix(-1 -1.74846e-07 -1.74846e-07 1 64 7.62939e-06)" fill="#D9D9D9"/>
</mask>
<g mask="url(#mask0_1_898)">
<circle cx="32" cy="32" r="32" transform="matrix(-1 -1.74846e-07 -1.74846e-07 1 64 4.57764e-05)" fill="black"/>
<circle cx="10" cy="10" r="10" transform="matrix(-0.999971 0.00762341 0.00762341 0.999971 41.9995 21.1259)" fill="white"/>
<circle cx="38" cy="38" r="38" transform="matrix(-0.999971 0.00762341 0.00762341 0.999971 70.0003 44)" fill="white"/>
<circle cx="4" cy="4" r="4" transform="matrix(-0.999971 0.00762341 0.00762341 0.999971 35.9997 10)" fill="white"/>
<circle cx="32" cy="32" r="31.75" transform="matrix(-1 -1.74846e-07 -1.74846e-07 1 64 7.62939e-06)" stroke="black" stroke-width="0.5"/>
</g>
</svg>
